<svg id="图层_1" data-name="图层 1" xmlns="http://www.w3.org/2000/svg" viewBox="0 0 40 40"><defs><style>.cls-1{fill:#ffc600;}</style></defs><title>icon_mail_pc</title><path class="cls-1" d="M20,40A20,20,0,1,1,40,20,20,20,0,0,1,20,40ZM20,1A19,19,0,1,0,39,20,19,19,0,0,0,20,1Z"/><path class="cls-1" d="M23.9,19.24l6.53-6.33a1,1,0,0,1,.3.72V26.37a1,1,0,0,1-.27.68ZM9.6,12.88a1,1,0,0,1,.67-.26H29.73a1,1,0,0,1,.67.26L20,21ZM9.54,27.06a1,1,0,0,1-.27-.68V13.63a1,1,0,0,1,.3-.72l6.53,6.33ZM20,23l2.73-2.64,7.69,6.73a1,1,0,0,1-.69.28H10.27a1,1,0,0,1-.69-.28l7.69-6.73Z"/></svg>